<svg width="233" height="161" viewBox="0 0 233 161" fill="none" xmlns="http://www.w3.org/2000/svg">
<g clip-path="url(#clip0_178_173)">
<path d="M150.459 131.181H89.8896V144.995H150.459V131.181Z" fill="#6F1C36"/>
<path d="M142.076 123.864C142.076 123.415 142.076 122.804 142.076 121.941C138.683 122.017 135.371 120.9 132.718 118.785C127.382 114.428 127.493 107.813 127.524 107.005C127.524 104.309 127.524 102.138 127.524 100.608C127.559 98.5481 127.594 97.9776 127.564 96.5689C127.564 95.9983 127.519 94.7058 127.498 92.878C127.498 92.2418 127.498 93.0699 127.62 90.2121C127.597 89.6726 127.694 89.1347 127.903 88.6367C128.135 88.1633 128.483 87.7554 128.913 87.4502C145.967 81.7497 154.077 56.4335 154.461 35C153.693 35 103.679 35 84.3567 35.0303C84.7912 68.6271 100.551 84.9105 110.127 87.6926C112.213 88.7731 113.234 90.4292 112.986 106.985C112.421 122.188 98.4139 121.804 98.4139 121.804V129.923L142.066 129.838C142.091 127.626 142.091 126.268 142.066 125.43C142.086 125.243 142.086 124.657 142.076 123.864ZM137.705 43.0786H147.013C147.013 43.0786 147.013 64.7898 134.648 77.6044L134.239 77.968L137.705 43.0786Z" fill="#6F1C36"/>
<path d="M130.995 108.126V100.866C130.995 100.866 167.553 64.088 167.553 49.1679C167.553 47.1482 167.76 42.8817 156.851 43.523C157.159 39.8523 157.159 38.9788 157.2 38.5041C157.705 38.4637 173.248 36.6511 172.985 47.4916C172.803 55.5045 164.961 72.4089 131.718 107.369L130.995 108.126Z" fill="#6F1C36"/>
<path d="M109.884 108.101V101.386C109.884 101.386 73.6697 65.2949 72.7299 49.1377C72.7299 47.2544 73.1796 43.0787 82.189 43.5837L81.8605 38.5345C81.3653 38.5043 66.9999 37.2521 66.9999 47.7643C66.5552 57.2769 82.2951 80.5331 109.515 107.733L109.884 108.101Z" fill="#6F1C36"/>
</g>
<path d="M23.5 0L28.7761 16.2381H45.8498L32.0369 26.2738L37.313 42.5119L23.5 32.4762L9.68705 42.5119L14.9631 26.2738L1.15017 16.2381H18.2239L23.5 0Z" fill="#6F1C36"/>
<path d="M209.5 84L214.776 100.238H231.85L218.037 110.274L223.313 126.512L209.5 116.476L195.687 126.512L200.963 110.274L187.15 100.238H204.224L209.5 84Z" fill="#6F1C36"/>
<path d="M37.5 114L42.7761 130.238H59.8498L46.0369 140.274L51.313 156.512L37.5 146.476L23.687 156.512L28.9631 140.274L15.1502 130.238H32.2239L37.5 114Z" fill="#6F1C36"/>
<path d="M128.5 12.618L133.301 27.3926L133.413 27.7381H133.776H149.311L136.743 36.8693L136.449 37.0828L136.561 37.4283L141.362 52.2029L128.794 43.0717L128.5 42.8582L128.206 43.0717L115.638 52.2029L120.439 37.4283L120.551 37.0828L120.257 36.8693L107.689 27.7381H123.224H123.587L123.699 27.3926L128.5 12.618Z" fill="white" stroke="black"/>
<defs>
<clipPath id="clip0_178_173">
<rect width="106" height="110" fill="white" transform="translate(67 35)"/>
</clipPath>
</defs>
</svg>
