<svg xmlns="http://www.w3.org/2000/svg" viewBox="0 0 221.24 237.73"><defs><style>.cls-1{fill:#6f1c36;}</style></defs><g id="Layer_2" data-name="Layer 2"><g id="Layer_9" data-name="Layer 9"><path class="cls-1" d="M111.25,237.68l20.78,0s3-1.25,3-6.84c.07-1.86-.79-7-3-7l-40.15-.66s-4.34-.15-4.26,7.25a8.91,8.91,0,0,0,.44,3.45s.72,3.25,2.48,3.73C90.64,237.73,102.11,237.75,111.25,237.68Z"/><path class="cls-1" d="M110.8,218.28l34.19.06s1.23.1,1.25-3.5-.58-4.14-1.28-4.14H110.8l-34.61-.17s-.84-.12-.8,3.55,1,3.82,1,3.82Z"/><path class="cls-1" d="M171.9,104.42c0,16.85-5.44,26.89-14.53,40.64,0,0-6.39,5.16-6.83,37.61l-.73,22.12H71.18v-25s.12-29.35-8.14-36.68c-2.64-2.76-14-20.41-13.64-38.87,0-21,15.59-61,61.34-61.22S171.9,82,171.9,104.42Z"/><polygon class="cls-1" points="186.68 93.18 221.24 83.99 219.6 78.41 185.05 87.55 186.68 93.18"/><polygon class="cls-1" points="149.15 37.59 142.9 35.26 155.78 0.33 162.01 2.64 149.15 37.59"/><polygon class="cls-1" points="81.02 34.92 68.53 0 62.18 2.12 74.8 37.32 81.02 34.92"/><polygon class="cls-1" points="34.34 91.96 35.93 86.26 1.48 77.14 0 82.83 34.34 91.96"/></g></g></svg>