<svg xmlns="http://www.w3.org/2000/svg" viewBox="0 0 243.71 249.03"><defs><style>.cls-1{fill:#6f1c36;}</style></defs><g id="Layer_2" data-name="Layer 2"><g id="Layer_9" data-name="Layer 9"><path class="cls-1" d="M122.93,249l20.78.05s3-1.25,3-6.84c.07-1.86-.79-7-3-7s-40.15-.66-40.15-.66-4.34-.16-4.26,7.25a8.84,8.84,0,0,0,.44,3.44s.72,3.26,2.49,3.74C102.32,249,113.79,249.06,122.93,249Z"/><path class="cls-1" d="M122.49,229.59l34.18,0s1.23.1,1.25-3.5-.58-4.14-1.28-4.14H122.49l-34.62-.17s-.84-.11-.8,3.55,1,3.83,1,3.83Z"/><path class="cls-1" d="M183.58,115.72c0,16.85-5.44,26.89-14.53,40.64,0,0-6.39,5.16-6.83,37.61l-.73,22.12H82.86v-25s.12-29.35-8.14-36.68c-2.64-2.76-14-20.41-13.64-38.87,0-21,15.59-61,61.34-61.22S183.58,93.31,183.58,115.72Z"/><polygon class="cls-1" points="196.19 103.25 243.71 90.62 241.45 82.95 193.95 95.5 196.19 103.25"/><polygon class="cls-1" points="163.5 52.43 154.71 49.16 172.81 0.09 181.56 3.33 163.5 52.43"/><polygon class="cls-1" points="92.39 48.59 75.01 0 66.18 2.95 83.72 51.93 92.39 48.59"/><polygon class="cls-1" points="49.03 102.43 51.29 94.3 2.11 81.28 0 89.41 49.03 102.43"/></g></g></svg>