<svg xmlns="http://www.w3.org/2000/svg" viewBox="0 0 239.52 239.52"><defs><style>.cls-1{fill:#6f1c36;}.cls-2{fill:#fff;}</style></defs><g id="Layer_2" data-name="Layer 2"><g id="Layer_2-2" data-name="Layer 2"></g><g id="Layer_3" data-name="Layer 3"><g id="Layer_5" data-name="Layer 5"><path class="cls-2" d="M136,195.81s.7-17.64-18.08-19c-16.56-.22-19.62,15.67-19.31,19,0,0,.59,18.17,18.68,18.35S136,195.81,136,195.81Z"/></g><g id="Layer_4" data-name="Layer 4"><path class="cls-2" d="M87.73,73.6s-4,.05-8.22.07C65.8,74.78,65.45,71,65.19,67.3c-.46-2.59.66-17.87,17.73-31S122.2,25.44,122.2,25.44c47.82.35,52.37,35.73,52.19,49.39s-8,28.9-20.75,41.6-21.11,15.76-22.86,36.86c-.35,5.61-9.37,4.91-13.83,5s-15.24,1.44-14.63-7.8c.79-24.17,17.52-39,28.2-48.51s13.09-18.26,13.09-27.26-2.3-23.65-23.12-23.91S96.72,65.26,95.73,69.73s-7.88,3.87-7.88,3.87Z"/></g></g></g></svg>